<svg xmlns="http://www.w3.org/2000/svg" style="display: none;">
	<symbol id="fb" viewBox="0 0 512 512">
		<path d="m297.277344 508.667969c-2.132813.347656-4.273438.667969-6.421875.960937 2.148437-.292968 4.289062-.613281 6.421875-.960937zm0 0"/><path d="m302.398438 507.792969c-1.019532.1875-2.039063.359375-3.058594.535156 1.019531-.175781 2.039062-.347656 3.058594-.535156zm0 0"/><path d="m285.136719 510.339844c-2.496094.28125-5.007813.53125-7.527344.742187 2.519531-.210937 5.03125-.460937 7.527344-.742187zm0 0"/><path d="m290.054688 509.738281c-1.199219.160157-2.40625.308594-3.609376.449219 1.203126-.140625 2.410157-.289062 3.609376-.449219zm0 0"/><path d="m309.367188 506.410156c-.898438.191406-1.800782.382813-2.703126.566406.902344-.183593 1.804688-.375 2.703126-.566406zm0 0"/><path d="m326.664062 502.113281c-.726562.207031-1.453124.402344-2.179687.605469.726563-.203125 1.453125-.398438 2.179687-.605469zm0 0"/><path d="m321.433594 503.542969c-.789063.207031-1.582032.417969-2.375.617187.792968-.199218 1.585937-.40625 2.375-.617187zm0 0"/><path d="m314.589844 505.253906c-.835938.195313-1.679688.378906-2.523438.566406.84375-.1875 1.6875-.371093 2.523438-.566406zm0 0"/><path d="m277.527344 511.089844c-1.347656.113281-2.695313.214844-4.046875.304687 1.351562-.089843 2.699219-.191406 4.046875-.304687zm0 0"/><path d="m512 256c0-141.363281-114.636719-256-256-256s-256 114.636719-256 256 114.636719 256 256 256c1.503906 0 3-.03125 4.5-.058594v-199.285156h-55v-64.097656h55v-47.167969c0-54.703125 33.394531-84.476563 82.191406-84.476563 23.367188 0 43.453125 1.742188 49.308594 2.519532v57.171875h-33.648438c-26.546874 0-31.6875 12.617187-31.6875 31.128906v40.824219h63.476563l-8.273437 64.097656h-55.203126v189.453125c107.003907-30.675781 185.335938-129.257813 185.335938-246.109375zm0 0"/><path d="m272.914062 511.429688c-2.664062.171874-5.339843.308593-8.023437.398437 2.683594-.089844 5.359375-.226563 8.023437-.398437zm0 0"/><path d="m264.753906 511.835938c-1.414062.046874-2.832031.082031-4.25.105468 1.417969-.023437 2.835938-.058594 4.25-.105468zm0 0"/>
	</symbol>
	
	<symbol id="us" viewBox="0 0 512 512">
		<rect y="85.331" style="fill:#F0F0F0;" width="512" height="341.337"/>
		<g>
			<rect y="127.994" style="fill:#D80027;" width="512" height="42.663"/>
			<rect y="213.331" style="fill:#D80027;" width="512" height="42.663"/>
			<rect y="298.657" style="fill:#D80027;" width="512" height="42.663"/>
			<rect y="383.994" style="fill:#D80027;" width="512" height="42.663"/>
		</g>
		<rect y="85.331" style="fill:#2E52B2;" width="256" height="183.797"/>
		<g>
			<polygon style="fill:#F0F0F0;" points="99.822,160.624 95.699,173.308 82.363,173.308 93.154,181.143 89.031,193.826 
				99.822,185.991 110.606,193.826 106.484,181.143 117.275,173.308 103.938,173.308 	"/>
			<polygon style="fill:#F0F0F0;" points="103.938,219.08 99.822,206.397 95.699,219.08 82.363,219.08 93.154,226.916 89.031,239.599 
				99.822,231.763 110.606,239.599 106.484,226.916 117.275,219.08 	"/>
			<polygon style="fill:#F0F0F0;" points="47.577,219.08 43.46,206.397 39.337,219.08 26.001,219.08 36.792,226.916 32.669,239.599 
				43.46,231.763 54.245,239.599 50.123,226.916 60.912,219.08 	"/>
			<polygon style="fill:#F0F0F0;" points="43.46,160.624 39.337,173.308 26.001,173.308 36.792,181.143 32.669,193.826 43.46,185.991 
				54.245,193.826 50.123,181.143 60.912,173.308 47.577,173.308 	"/>
			<polygon style="fill:#F0F0F0;" points="99.822,114.85 95.699,127.535 82.363,127.535 93.154,135.371 89.031,148.054 
				99.822,140.218 110.606,148.054 106.484,135.371 117.275,127.535 103.938,127.535 	"/>
			<polygon style="fill:#F0F0F0;" points="43.46,114.85 39.337,127.535 26.001,127.535 36.792,135.371 32.669,148.054 43.46,140.218 
				54.245,148.054 50.123,135.371 60.912,127.535 47.577,127.535 	"/>
			<polygon style="fill:#F0F0F0;" points="156.183,160.624 152.061,173.308 138.725,173.308 149.515,181.143 145.394,193.826 
				156.183,185.991 166.969,193.826 162.846,181.143 173.637,173.308 160.301,173.308 	"/>
			<polygon style="fill:#F0F0F0;" points="160.301,219.08 156.183,206.397 152.061,219.08 138.725,219.08 149.515,226.916 
				145.394,239.599 156.183,231.763 166.969,239.599 162.846,226.916 173.637,219.08 	"/>
			<polygon style="fill:#F0F0F0;" points="216.663,219.08 212.546,206.397 208.423,219.08 195.088,219.08 205.877,226.916 
				201.755,239.599 212.546,231.763 223.331,239.599 219.208,226.916 229.999,219.08 	"/>
			<polygon style="fill:#F0F0F0;" points="212.546,160.624 208.423,173.308 195.088,173.308 205.877,181.143 201.755,193.826 
				212.546,185.991 223.331,193.826 219.208,181.143 229.999,173.308 216.663,173.308 	"/>
			<polygon style="fill:#F0F0F0;" points="156.183,114.85 152.061,127.535 138.725,127.535 149.515,135.371 145.394,148.054 
				156.183,140.218 166.969,148.054 162.846,135.371 173.637,127.535 160.301,127.535 	"/>
			<polygon style="fill:#F0F0F0;" points="212.546,114.85 208.423,127.535 195.088,127.535 205.877,135.371 201.755,148.054 
				212.546,140.218 223.331,148.054 219.208,135.371 229.999,127.535 216.663,127.535 	"/>
		</g>
	</symbol>
</svg>